# xmcd
#
# Track frame offsets:
#  150
#  21645
#  40988
#  52771
#  70414
#  85671
#  105285
#  119872
#  133805
#  154303
#  181440
#  193821
#
# Disc length: 2768 seconds
#
# Revision: 0
# Processed by: cddbd v1.5.1PL2 Copyright (c) Steve Scherf et al.
# Submitted via: Collectorz.com_Music_Collector 6.11
#
DISCID=ad0ace0c
DTITLE=Various Artist - Post Modern
DYEAR=2003
DGENRE=
TTITLE0=Rice, Damien - Woman Like A Man
TTITLE1=Frames, The - Revelate
TTITLE2=Hayes, Gemma - Over And Over
TTITLE3=Mundy - Mayday
TTITLE4=Turner, Juliet - Tuesday Night Ladies
TTITLE5=Saw Doctors, The - Clare Island
TTITLE6=Doyle Kennedy, Maria - Stars Above
TTITLE7=Jack L - So Far Gone
TTITLE8=Dillon, Cara - Falling Like A Star
TTITLE9=Hothouse Flowers - Magic Bracelets
TTITLE10=Saucy Monkey - Trapped
TTITLE11=Revs, The - Best Days
EXTD=
EXTT0=
EXTT1=
EXTT2=
EXTT3=
EXTT4=
EXTT5=
EXTT6=
EXTT7=
EXTT8=
EXTT9=
EXTT10=
EXTT11=
PLAYORDER=
